<svg width="1181" height="300" viewBox="0 0 1181 300" fill="none" xmlns="http://www.w3.org/2000/svg">
<path fill-rule="evenodd" clip-rule="evenodd" d="M121.552 300C245.69 300 300 232.801 300 191.237C300 149.996 236.586 149.998 152.997 150L151.035 150L149.072 150C65.4515 149.998 0 149.996 0 191.237C0 232.801 36.995 300 121.552 300ZM122.068 253.448C156.919 253.448 185.172 240.712 185.172 225C185.172 209.288 156.919 196.552 122.068 196.552C87.2173 196.552 58.965 209.288 58.965 225C58.965 240.712 87.2173 253.448 122.068 253.448Z" fill="url(#paint0_linear_160_12)"/>
<path fill-rule="evenodd" clip-rule="evenodd" d="M232.676 27.0128C263.221 28.2802 280 28.9764 280 24.9392C280 18.0524 231.175 0 148.482 0C65.7901 0 19.9999 18.0524 19.9999 24.9392C19.9999 28.9523 35.549 28.2883 64.8883 27.0355C85.8972 26.1383 113.977 24.9392 148.482 24.9392C182.699 24.9392 211.116 26.1183 232.676 27.0128ZM300 117.088C300 135.832 258.319 134.757 200.099 133.257C182.572 132.805 163.546 132.314 143.706 132.314C123.394 132.314 104.64 132.828 87.8469 133.289L87.8458 133.289C33.7542 134.772 0 135.697 0 117.088C0 92.7004 8.00286e-05 44.0001 143.706 44.0001C300 44.0001 300 92.7004 300 117.088ZM245.456 89.0002C245.456 96.343 216.809 102.296 181.47 102.296C146.132 102.296 117.484 96.343 117.484 89.0002C117.484 81.6573 146.132 75.7047 181.47 75.7047C216.809 75.7047 245.456 81.6573 245.456 89.0002Z" fill="url(#paint1_linear_160_12)"/>
<path d="M598.731 58.2006C600.586 58.2006 602.09 59.7043 602.09 61.5593V194.836C602.09 196.691 600.586 198.195 598.731 198.195H577.469C575.614 198.195 574.11 196.691 574.11 194.836V111.396C574.11 110.475 572.843 110.225 572.494 111.077L537.592 196.111C537.075 197.372 535.847 198.195 534.485 198.195H517.8C516.44 198.195 515.214 197.375 514.695 196.117L479.596 111.054C479.245 110.204 477.98 110.455 477.98 111.375V194.836C477.98 196.691 476.476 198.195 474.621 198.195H453.359C451.504 198.195 450 196.691 450 194.836V61.5593C450 59.7043 451.504 58.2006 453.359 58.2006H479.557C480.903 58.2006 482.119 59.0041 482.647 60.2423L525.372 160.482C525.662 161.162 526.627 161.162 526.917 160.482L569.642 60.2423C570.17 59.0041 571.386 58.2006 572.732 58.2006H598.731Z" fill="#FFF9F6"/>
<path d="M732.678 140.232C732.678 143.108 732.541 145.778 732.267 148.242C732.085 149.875 730.674 151.062 729.032 151.062H651.849C651.358 151.062 650.971 151.483 651.023 151.971C651.82 159.561 654.589 165.542 659.331 169.915C664.261 174.461 670.323 176.734 677.518 176.734C687.17 176.734 694.236 172.871 698.716 165.144C699.359 164.036 700.514 163.297 701.795 163.297H725.37C727.619 163.297 729.233 165.466 728.412 167.56C724.96 176.361 719.32 183.764 711.493 189.771C702.433 196.59 691.308 200 678.117 200C667.459 200 657.866 197.66 649.338 192.98C640.944 188.167 634.349 181.414 629.553 172.723C624.889 164.032 622.558 154.004 622.558 142.638C622.558 131.139 624.889 121.044 629.553 112.353C634.216 103.662 640.745 96.9765 649.139 92.2966C657.532 87.6168 667.192 85.2768 678.117 85.2768C688.643 85.2768 698.036 87.5499 706.297 92.096C714.691 96.6422 721.153 103.127 725.683 111.551C730.346 119.841 732.678 129.401 732.678 140.232ZM702.844 132.209C703.313 132.209 703.693 131.823 703.671 131.353C703.355 124.533 700.766 119.069 695.905 114.96C690.842 110.548 684.646 108.342 677.318 108.342C670.39 108.342 664.527 110.481 659.731 114.76C655.268 118.727 652.453 124.224 651.285 131.252C651.201 131.756 651.594 132.209 652.105 132.209H702.844Z" fill="#FFF9F6"/>
<path d="M872.414 194.836C872.414 196.691 870.91 198.195 869.056 198.195H846.243C845.114 198.195 844.06 197.628 843.439 196.685L782.621 104.461C782.162 103.765 781.08 104.09 781.08 104.923V194.836C781.08 196.691 779.577 198.195 777.722 198.195H756.459C754.604 198.195 753.101 196.691 753.101 194.836V61.3587C753.101 59.5037 754.604 58 756.459 58H779.27C780.4 58 781.454 58.5683 782.076 59.5123L842.893 151.929C843.352 152.626 844.435 152.301 844.435 151.468V61.3587C844.435 59.5037 845.938 58 847.793 58H869.056C870.91 58 872.414 59.5037 872.414 61.3587V194.836Z" fill="#FFF9F6"/>
<path d="M949.229 200C938.57 200 928.977 197.66 920.45 192.98C911.923 188.167 905.194 181.414 900.264 172.723C895.468 164.032 893.07 154.004 893.07 142.638C893.07 131.273 895.534 121.245 900.464 112.554C905.527 103.863 912.389 97.177 921.049 92.4972C929.71 87.6836 939.369 85.2768 950.028 85.2768C960.687 85.2768 970.347 87.6836 979.007 92.4972C987.668 97.177 994.463 103.863 999.393 112.554C1004.46 121.245 1006.99 131.273 1006.99 142.638C1006.99 154.004 1004.39 164.032 999.193 172.723C994.13 181.414 987.201 188.167 978.408 192.98C969.747 197.66 960.021 200 949.229 200ZM949.229 175.531C954.292 175.531 959.022 174.328 963.419 171.921C967.949 169.38 971.546 165.637 974.211 160.689C976.876 155.742 978.208 149.725 978.208 142.638C978.208 132.075 975.41 123.986 969.814 118.37C964.351 112.621 957.623 109.746 949.629 109.746C941.634 109.746 934.906 112.621 929.443 118.37C924.114 123.986 921.449 132.075 921.449 142.638C921.449 153.201 924.047 161.358 929.243 167.107C934.573 172.723 941.235 175.531 949.229 175.531Z" fill="#FFF9F6"/>
<path d="M1176.52 87.0819C1178.76 87.0819 1180.37 89.2308 1179.75 91.3802L1149.33 195.776C1148.91 197.209 1147.6 198.195 1146.1 198.195H1121.04C1119.51 198.195 1118.18 197.162 1117.79 195.682L1099.07 123.701C1098.85 122.863 1097.67 122.863 1097.45 123.701L1078.73 195.682C1078.34 197.162 1077.01 198.195 1075.48 198.195H1050.21C1048.72 198.195 1047.41 197.212 1046.99 195.781L1016.38 91.3856C1015.75 89.235 1017.36 87.0819 1019.61 87.0819H1040.83C1042.39 87.0819 1043.75 88.1604 1044.1 89.6834L1062.3 168.324C1062.5 169.183 1063.72 169.194 1063.93 168.338L1083.63 89.6251C1084.01 88.1304 1085.35 87.0819 1086.89 87.0819H1111.22C1112.76 87.0819 1114.11 88.1369 1114.48 89.6378L1133.79 168.109C1134.01 168.967 1135.23 168.959 1135.43 168.098L1153.62 89.6817C1153.97 88.1595 1155.33 87.0819 1156.89 87.0819H1176.52Z" fill="#FFF9F6"/>
<path d="M470.488 248.25H455.287L452.488 256H447.688L460.288 221.35H465.538L478.088 256H473.288L470.488 248.25ZM469.188 244.55L462.888 226.95L456.588 244.55H469.188Z" fill="#FFF9F6"/>
<path d="M492.129 221.15V256H487.579V221.15H492.129Z" fill="#FFF9F6"/>
<path d="M532.514 228.15C534.88 228.15 536.947 228.667 538.714 229.7C540.514 230.734 541.847 232.034 542.714 233.6V228.6H547.314V256.6C547.314 259.1 546.78 261.317 545.714 263.25C544.647 265.217 543.114 266.75 541.114 267.85C539.147 268.95 536.847 269.5 534.214 269.5C530.614 269.5 527.614 268.65 525.214 266.95C522.814 265.25 521.397 262.934 520.964 260H525.464C525.964 261.667 526.997 263 528.564 264C530.13 265.034 532.014 265.55 534.214 265.55C536.714 265.55 538.747 264.767 540.314 263.2C541.914 261.634 542.714 259.434 542.714 256.6V250.85C541.814 252.45 540.48 253.784 538.714 254.85C536.947 255.917 534.88 256.45 532.514 256.45C530.08 256.45 527.864 255.85 525.864 254.65C523.897 253.45 522.347 251.767 521.214 249.6C520.08 247.434 519.514 244.967 519.514 242.2C519.514 239.4 520.08 236.95 521.214 234.85C522.347 232.717 523.897 231.067 525.864 229.9C527.864 228.734 530.08 228.15 532.514 228.15ZM542.714 242.25C542.714 240.184 542.297 238.384 541.464 236.85C540.63 235.317 539.497 234.15 538.064 233.35C536.664 232.517 535.114 232.1 533.414 232.1C531.714 232.1 530.164 232.5 528.764 233.3C527.364 234.1 526.247 235.267 525.414 236.8C524.58 238.334 524.164 240.134 524.164 242.2C524.164 244.3 524.58 246.134 525.414 247.7C526.247 249.234 527.364 250.417 528.764 251.25C530.164 252.05 531.714 252.45 533.414 252.45C535.114 252.45 536.664 252.05 538.064 251.25C539.497 250.417 540.63 249.234 541.464 247.7C542.297 246.134 542.714 244.317 542.714 242.25Z" fill="#FFF9F6"/>
<path d="M557.303 242.2C557.303 239.4 557.869 236.95 559.003 234.85C560.136 232.717 561.686 231.067 563.653 229.9C565.653 228.734 567.869 228.15 570.303 228.15C572.703 228.15 574.786 228.667 576.553 229.7C578.319 230.734 579.636 232.034 580.503 233.6V228.6H585.103V256H580.503V250.9C579.603 252.5 578.253 253.834 576.453 254.9C574.686 255.934 572.619 256.45 570.253 256.45C567.819 256.45 565.619 255.85 563.653 254.65C561.686 253.45 560.136 251.767 559.003 249.6C557.869 247.434 557.303 244.967 557.303 242.2ZM580.503 242.25C580.503 240.184 580.086 238.384 579.253 236.85C578.419 235.317 577.286 234.15 575.853 233.35C574.453 232.517 572.903 232.1 571.203 232.1C569.503 232.1 567.953 232.5 566.553 233.3C565.153 234.1 564.036 235.267 563.203 236.8C562.369 238.334 561.953 240.134 561.953 242.2C561.953 244.3 562.369 246.134 563.203 247.7C564.036 249.234 565.153 250.417 566.553 251.25C567.953 252.05 569.503 252.45 571.203 252.45C572.903 252.45 574.453 252.05 575.853 251.25C577.286 250.417 578.419 249.234 579.253 247.7C580.086 246.134 580.503 244.317 580.503 242.25Z" fill="#FFF9F6"/>
<path d="M602.342 232.35V248.5C602.342 249.834 602.625 250.784 603.192 251.35C603.758 251.884 604.742 252.15 606.142 252.15H609.492V256H605.392C602.858 256 600.958 255.417 599.692 254.25C598.425 253.084 597.792 251.167 597.792 248.5V232.35H594.242V228.6H597.792V221.7H602.342V228.6H609.492V232.35H602.342Z" fill="#FFF9F6"/>
<path d="M644.005 241.25C644.005 242.117 643.955 243.034 643.855 244H621.955C622.121 246.7 623.038 248.817 624.705 250.35C626.405 251.85 628.455 252.6 630.855 252.6C632.821 252.6 634.455 252.15 635.755 251.25C637.088 250.317 638.021 249.084 638.555 247.55H643.455C642.721 250.184 641.255 252.334 639.055 254C636.855 255.634 634.121 256.45 630.855 256.45C628.255 256.45 625.921 255.867 623.855 254.7C621.821 253.534 620.221 251.884 619.055 249.75C617.888 247.584 617.305 245.084 617.305 242.25C617.305 239.417 617.871 236.934 619.005 234.8C620.138 232.667 621.721 231.034 623.755 229.9C625.821 228.734 628.188 228.15 630.855 228.15C633.455 228.15 635.755 228.717 637.755 229.85C639.755 230.984 641.288 232.55 642.355 234.55C643.455 236.517 644.005 238.75 644.005 241.25ZM639.305 240.3C639.305 238.567 638.921 237.084 638.155 235.85C637.388 234.584 636.338 233.634 635.005 233C633.705 232.334 632.255 232 630.655 232C628.355 232 626.388 232.734 624.755 234.2C623.155 235.667 622.238 237.7 622.005 240.3H639.305Z" fill="#FFF9F6"/>
<path d="M690.511 228.6L681.961 256H677.261L670.661 234.25L664.061 256H659.361L650.761 228.6H655.411L661.711 251.6L668.511 228.6H673.161L679.811 251.65L686.011 228.6H690.511Z" fill="#FFF9F6"/>
<path d="M697.326 242.2C697.326 239.4 697.893 236.95 699.026 234.85C700.16 232.717 701.71 231.067 703.676 229.9C705.676 228.734 707.893 228.15 710.326 228.15C712.726 228.15 714.81 228.667 716.576 229.7C718.343 230.734 719.66 232.034 720.526 233.6V228.6H725.126V256H720.526V250.9C719.626 252.5 718.276 253.834 716.476 254.9C714.71 255.934 712.643 256.45 710.276 256.45C707.843 256.45 705.643 255.85 703.676 254.65C701.71 253.45 700.16 251.767 699.026 249.6C697.893 247.434 697.326 244.967 697.326 242.2ZM720.526 242.25C720.526 240.184 720.11 238.384 719.276 236.85C718.443 235.317 717.309 234.15 715.876 233.35C714.476 232.517 712.926 232.1 711.226 232.1C709.526 232.1 707.976 232.5 706.576 233.3C705.176 234.1 704.06 235.267 703.226 236.8C702.393 238.334 701.976 240.134 701.976 242.2C701.976 244.3 702.393 246.134 703.226 247.7C704.06 249.234 705.176 250.417 706.576 251.25C707.976 252.05 709.526 252.45 711.226 252.45C712.926 252.45 714.476 252.05 715.876 251.25C717.309 250.417 718.443 249.234 719.276 247.7C720.11 246.134 720.526 244.317 720.526 242.25Z" fill="#FFF9F6"/>
<path d="M760.415 228.6L743.915 268.9H739.215L744.615 255.7L733.565 228.6H738.615L747.215 250.8L755.715 228.6H760.415Z" fill="#FFF9F6"/>
<path d="M791.869 232.35V248.5C791.869 249.834 792.152 250.784 792.719 251.35C793.286 251.884 794.269 252.15 795.669 252.15H799.019V256H794.919C792.386 256 790.486 255.417 789.219 254.25C787.952 253.084 787.319 251.167 787.319 248.5V232.35H783.769V228.6H787.319V221.7H791.869V228.6H799.019V232.35H791.869Z" fill="#FFF9F6"/>
<path d="M820.482 256.45C817.915 256.45 815.582 255.867 813.482 254.7C811.415 253.534 809.782 251.884 808.582 249.75C807.415 247.584 806.832 245.084 806.832 242.25C806.832 239.45 807.432 236.984 808.632 234.85C809.865 232.684 811.532 231.034 813.632 229.9C815.732 228.734 818.082 228.15 820.682 228.15C823.282 228.15 825.632 228.734 827.732 229.9C829.832 231.034 831.482 232.667 832.682 234.8C833.915 236.934 834.532 239.417 834.532 242.25C834.532 245.084 833.899 247.584 832.632 249.75C831.399 251.884 829.715 253.534 827.582 254.7C825.449 255.867 823.082 256.45 820.482 256.45ZM820.482 252.45C822.115 252.45 823.649 252.067 825.082 251.3C826.515 250.534 827.665 249.384 828.532 247.85C829.432 246.317 829.882 244.45 829.882 242.25C829.882 240.05 829.449 238.184 828.582 236.65C827.715 235.117 826.582 233.984 825.182 233.25C823.782 232.484 822.265 232.1 820.632 232.1C818.965 232.1 817.432 232.484 816.032 233.25C814.665 233.984 813.565 235.117 812.732 236.65C811.899 238.184 811.482 240.05 811.482 242.25C811.482 244.484 811.882 246.367 812.682 247.9C813.515 249.434 814.615 250.584 815.982 251.35C817.349 252.084 818.849 252.45 820.482 252.45Z" fill="#FFF9F6"/>
<path d="M860.145 242.25C860.145 239.417 860.711 236.95 861.845 234.85C862.978 232.717 864.545 231.067 866.545 229.9C868.578 228.734 870.895 228.15 873.495 228.15C876.861 228.15 879.628 228.967 881.795 230.6C883.995 232.234 885.445 234.5 886.145 237.4H881.245C880.778 235.734 879.861 234.417 878.495 233.45C877.161 232.484 875.495 232 873.495 232C870.895 232 868.795 232.9 867.195 234.7C865.595 236.467 864.795 238.984 864.795 242.25C864.795 245.55 865.595 248.1 867.195 249.9C868.795 251.7 870.895 252.6 873.495 252.6C875.495 252.6 877.161 252.134 878.495 251.2C879.828 250.267 880.745 248.934 881.245 247.2H886.145C885.411 250 883.945 252.25 881.745 253.95C879.545 255.617 876.795 256.45 873.495 256.45C870.895 256.45 868.578 255.867 866.545 254.7C864.545 253.534 862.978 251.884 861.845 249.75C860.711 247.617 860.145 245.117 860.145 242.25Z" fill="#FFF9F6"/>
<path d="M908.166 256.45C905.599 256.45 903.266 255.867 901.166 254.7C899.099 253.534 897.466 251.884 896.266 249.75C895.099 247.584 894.516 245.084 894.516 242.25C894.516 239.45 895.116 236.984 896.316 234.85C897.549 232.684 899.216 231.034 901.316 229.9C903.416 228.734 905.766 228.15 908.366 228.15C910.966 228.15 913.316 228.734 915.416 229.9C917.516 231.034 919.166 232.667 920.366 234.8C921.599 236.934 922.216 239.417 922.216 242.25C922.216 245.084 921.582 247.584 920.316 249.75C919.082 251.884 917.399 253.534 915.266 254.7C913.132 255.867 910.766 256.45 908.166 256.45ZM908.166 252.45C909.799 252.45 911.332 252.067 912.766 251.3C914.199 250.534 915.349 249.384 916.216 247.85C917.116 246.317 917.566 244.45 917.566 242.25C917.566 240.05 917.132 238.184 916.266 236.65C915.399 235.117 914.266 233.984 912.866 233.25C911.466 232.484 909.949 232.1 908.316 232.1C906.649 232.1 905.116 232.484 903.716 233.25C902.349 233.984 901.249 235.117 900.416 236.65C899.582 238.184 899.166 240.05 899.166 242.25C899.166 244.484 899.566 246.367 900.366 247.9C901.199 249.434 902.299 250.584 903.666 251.35C905.032 252.084 906.532 252.45 908.166 252.45Z" fill="#FFF9F6"/>
<path d="M941.898 256.45C939.798 256.45 937.915 256.1 936.248 255.4C934.581 254.667 933.265 253.667 932.298 252.4C931.331 251.1 930.798 249.617 930.698 247.95H935.398C935.531 249.317 936.165 250.434 937.298 251.3C938.465 252.167 939.981 252.6 941.848 252.6C943.581 252.6 944.948 252.217 945.948 251.45C946.948 250.684 947.448 249.717 947.448 248.55C947.448 247.35 946.915 246.467 945.848 245.9C944.781 245.3 943.131 244.717 940.898 244.15C938.865 243.617 937.198 243.084 935.898 242.55C934.631 241.984 933.531 241.167 932.598 240.1C931.698 239 931.248 237.567 931.248 235.8C931.248 234.4 931.665 233.117 932.498 231.95C933.331 230.784 934.515 229.867 936.048 229.2C937.581 228.5 939.331 228.15 941.298 228.15C944.331 228.15 946.781 228.917 948.648 230.45C950.515 231.984 951.515 234.084 951.648 236.75H947.098C946.998 235.317 946.415 234.167 945.348 233.3C944.315 232.434 942.915 232 941.148 232C939.515 232 938.215 232.35 937.248 233.05C936.281 233.75 935.798 234.667 935.798 235.8C935.798 236.7 936.081 237.45 936.648 238.05C937.248 238.617 937.981 239.084 938.848 239.45C939.748 239.784 940.981 240.167 942.548 240.6C944.515 241.134 946.115 241.667 947.348 242.2C948.581 242.7 949.631 243.467 950.498 244.5C951.398 245.534 951.865 246.884 951.898 248.55C951.898 250.05 951.481 251.4 950.648 252.6C949.815 253.8 948.631 254.75 947.098 255.45C945.598 256.117 943.865 256.45 941.898 256.45Z" fill="#FFF9F6"/>
<path d="M995.271 228.1C997.404 228.1 999.304 228.55 1000.97 229.45C1002.64 230.317 1003.95 231.634 1004.92 233.4C1005.89 235.167 1006.37 237.317 1006.37 239.85V256H1001.87V240.5C1001.87 237.767 1001.19 235.684 999.821 234.25C998.488 232.784 996.671 232.05 994.371 232.05C992.004 232.05 990.121 232.817 988.721 234.35C987.321 235.85 986.621 238.034 986.621 240.9V256H982.121V240.5C982.121 237.767 981.438 235.684 980.071 234.25C978.738 232.784 976.921 232.05 974.621 232.05C972.254 232.05 970.371 232.817 968.971 234.35C967.571 235.85 966.871 238.034 966.871 240.9V256H962.321V228.6H966.871V232.55C967.771 231.117 968.971 230.017 970.471 229.25C972.004 228.484 973.688 228.1 975.521 228.1C977.821 228.1 979.854 228.617 981.621 229.65C983.388 230.684 984.704 232.2 985.571 234.2C986.338 232.267 987.604 230.767 989.371 229.7C991.138 228.634 993.104 228.1 995.271 228.1Z" fill="#FFF9F6"/>
<path d="M1042.83 241.25C1042.83 242.117 1042.78 243.034 1042.68 244H1020.78C1020.95 246.7 1021.87 248.817 1023.53 250.35C1025.23 251.85 1027.28 252.6 1029.68 252.6C1031.65 252.6 1033.28 252.15 1034.58 251.25C1035.92 250.317 1036.85 249.084 1037.38 247.55H1042.28C1041.55 250.184 1040.08 252.334 1037.88 254C1035.68 255.634 1032.95 256.45 1029.68 256.45C1027.08 256.45 1024.75 255.867 1022.68 254.7C1020.65 253.534 1019.05 251.884 1017.88 249.75C1016.72 247.584 1016.13 245.084 1016.13 242.25C1016.13 239.417 1016.7 236.934 1017.83 234.8C1018.97 232.667 1020.55 231.034 1022.58 229.9C1024.65 228.734 1027.02 228.15 1029.68 228.15C1032.28 228.15 1034.58 228.717 1036.58 229.85C1038.58 230.984 1040.12 232.55 1041.18 234.55C1042.28 236.517 1042.83 238.75 1042.83 241.25ZM1038.13 240.3C1038.13 238.567 1037.75 237.084 1036.98 235.85C1036.22 234.584 1035.17 233.634 1033.83 233C1032.53 232.334 1031.08 232 1029.48 232C1027.18 232 1025.22 232.734 1023.58 234.2C1021.98 235.667 1021.07 237.7 1020.83 240.3H1038.13Z" fill="#FFF9F6"/>
<path d="M1058.39 232.35V248.5C1058.39 249.834 1058.67 250.784 1059.24 251.35C1059.81 251.884 1060.79 252.15 1062.19 252.15H1065.54V256H1061.44C1058.91 256 1057.01 255.417 1055.74 254.25C1054.47 253.084 1053.84 251.167 1053.84 248.5V232.35H1050.29V228.6H1053.84V221.7H1058.39V228.6H1065.54V232.35H1058.39Z" fill="#FFF9F6"/>
<path d="M1077.4 224.15C1076.54 224.15 1075.8 223.85 1075.2 223.25C1074.6 222.65 1074.3 221.917 1074.3 221.05C1074.3 220.184 1074.6 219.45 1075.2 218.85C1075.8 218.25 1076.54 217.95 1077.4 217.95C1078.24 217.95 1078.94 218.25 1079.5 218.85C1080.1 219.45 1080.4 220.184 1080.4 221.05C1080.4 221.917 1080.1 222.65 1079.5 223.25C1078.94 223.85 1078.24 224.15 1077.4 224.15ZM1079.6 228.6V256H1075.05V228.6H1079.6Z" fill="#FFF9F6"/>
<path d="M1089.66 242.25C1089.66 239.417 1090.22 236.95 1091.36 234.85C1092.49 232.717 1094.06 231.067 1096.06 229.9C1098.09 228.734 1100.41 228.15 1103.01 228.15C1106.37 228.15 1109.14 228.967 1111.31 230.6C1113.51 232.234 1114.96 234.5 1115.66 237.4H1110.76C1110.29 235.734 1109.37 234.417 1108.01 233.45C1106.67 232.484 1105.01 232 1103.01 232C1100.41 232 1098.31 232.9 1096.71 234.7C1095.11 236.467 1094.31 238.984 1094.31 242.25C1094.31 245.55 1095.11 248.1 1096.71 249.9C1098.31 251.7 1100.41 252.6 1103.01 252.6C1105.01 252.6 1106.67 252.134 1108.01 251.2C1109.34 250.267 1110.26 248.934 1110.76 247.2H1115.66C1114.92 250 1113.46 252.25 1111.26 253.95C1109.06 255.617 1106.31 256.45 1103.01 256.45C1100.41 256.45 1098.09 255.867 1096.06 254.7C1094.06 253.534 1092.49 251.884 1091.36 249.75C1090.22 247.617 1089.66 245.117 1089.66 242.25Z" fill="#FFF9F6"/>
<path d="M1135.43 256.45C1133.33 256.45 1131.45 256.1 1129.78 255.4C1128.11 254.667 1126.8 253.667 1125.83 252.4C1124.86 251.1 1124.33 249.617 1124.23 247.95H1128.93C1129.06 249.317 1129.7 250.434 1130.83 251.3C1132 252.167 1133.51 252.6 1135.38 252.6C1137.11 252.6 1138.48 252.217 1139.48 251.45C1140.48 250.684 1140.98 249.717 1140.98 248.55C1140.98 247.35 1140.45 246.467 1139.38 245.9C1138.31 245.3 1136.66 244.717 1134.43 244.15C1132.4 243.617 1130.73 243.084 1129.43 242.55C1128.16 241.984 1127.06 241.167 1126.13 240.1C1125.23 239 1124.78 237.567 1124.78 235.8C1124.78 234.4 1125.2 233.117 1126.03 231.95C1126.86 230.784 1128.05 229.867 1129.58 229.2C1131.11 228.5 1132.86 228.15 1134.83 228.15C1137.86 228.15 1140.31 228.917 1142.18 230.45C1144.05 231.984 1145.05 234.084 1145.18 236.75H1140.63C1140.53 235.317 1139.95 234.167 1138.88 233.3C1137.85 232.434 1136.45 232 1134.68 232C1133.05 232 1131.75 232.35 1130.78 233.05C1129.81 233.75 1129.33 234.667 1129.33 235.8C1129.33 236.7 1129.61 237.45 1130.18 238.05C1130.78 238.617 1131.51 239.084 1132.38 239.45C1133.28 239.784 1134.51 240.167 1136.08 240.6C1138.05 241.134 1139.65 241.667 1140.88 242.2C1142.11 242.7 1143.16 243.467 1144.03 244.5C1144.93 245.534 1145.4 246.884 1145.43 248.55C1145.43 250.05 1145.01 251.4 1144.18 252.6C1143.35 253.8 1142.16 254.75 1140.63 255.45C1139.13 256.117 1137.4 256.45 1135.43 256.45Z" fill="#FFF9F6"/>
<defs>
<linearGradient id="paint0_linear_160_12" x1="57.8571" y1="170.357" x2="138.429" y2="331.5" gradientUnits="userSpaceOnUse">
<stop stop-color="#FFF2EC"/>
<stop offset="1" stop-color="#F6CECD"/>
</linearGradient>
<linearGradient id="paint1_linear_160_12" x1="57.8571" y1="18.1857" x2="124.863" y2="168.199" gradientUnits="userSpaceOnUse">
<stop stop-color="#C67371"/>
<stop offset="1" stop-color="#F6CECD"/>
</linearGradient>
</defs>
</svg>
